<svg class="icon" width="200" height="200" viewBox="0 0 1024 1024" xmlns="http://www.w3.org/2000/svg"><path d="M929.295 873.475H63.904V231.262c0-15.451 12.484-27.936 27.936-27.936 15.451 0 27.935 12.485 27.935 27.936v586.342h809.622c15.452 0 27.936 12.484 27.936 27.935-.102 15.452-12.586 27.936-28.038 27.936zM845.59 761.732h-55.87c-30.802 0-55.872-24.968-55.872-55.87V370.94c0-30.8 24.968-55.87 55.871-55.87h55.871c30.801 0 55.872 24.967 55.872 55.87v335.023c0 30.801-25.07 55.77-55.872 55.77zm-279.151 0h-55.872c-30.8 0-55.87-24.968-55.87-55.87V203.428c0-30.801 24.967-55.871 55.87-55.871h55.872c30.8 0 55.871 24.968 55.871 55.87v502.535c-.102 30.801-25.07 55.77-55.871 55.77zm-279.254 0h-55.872c-30.8 0-55.871-24.968-55.871-55.87V482.58c0-30.801 24.968-55.872 55.871-55.872h55.872c30.8 0 55.87 24.968 55.87 55.872v223.382c0 30.801-24.967 55.77-55.87 55.77z"/></svg>