<svg class="icon" viewBox="0 0 1024 1024" xmlns="http://www.w3.org/2000/svg" width="200" height="200"><defs><style/></defs><path d="M512 1024H64a32 32 0 0 1-32-32V32A32 32 0 0 1 64 0h832a32 32 0 0 1 32 32v448a32 32 0 0 1-64 0V64H96v896h416a32 32 0 0 1 0 64z"/><path d="M704 320H256a32 32 0 0 1-32-32 32 32 0 0 1 32-32h448a32 32 0 0 1 32 32 32 32 0 0 1-32 32zM448 704H256a32 32 0 0 1 0-64h192a32 32 0 0 1 0 64zm256-192H256a32 32 0 0 1 0-64h448a32 32 0 0 1 0 64zm96 512a32 32 0 0 1-32-32V672a32 32 0 0 1 64 0v320a32 32 0 0 1-32 32z"/><path d="M960 864H640a32 32 0 0 1 0-64h320a32 32 0 0 1 0 64z"/></svg>