<svg class="icon" viewBox="0 0 1024 1024" xmlns="http://www.w3.org/2000/svg" width="200" height="200"><defs><style/></defs><path d="M916.108 114.967h-805.33a62.836 62.836 0 0 0-62.79 62.79v686.778c0 34.63 28.16 62.837 62.79 62.837h805.33c34.63 0 62.836-28.16 62.836-62.837V177.711a62.93 62.93 0 0 0-62.836-62.744zm-7.029 69.818v62.65H117.807v-62.65h791.272zM117.807 857.507v-540.3h791.272V857.46H117.807zm506.88-472.064L460.66 821.062a34.91 34.91 0 1 1-65.35-24.67L559.29 360.82a34.956 34.956 0 0 1 65.397 24.623zM341.969 549.236l-68.002 68.003 68.002 68.05a34.91 34.91 0 0 1-49.338 49.384l-92.718-92.718a34.863 34.863 0 0 1 0-49.338l92.718-92.672a34.91 34.91 0 0 1 49.338 49.291zm485.702-29.882a34.91 34.91 0 0 1 0 49.385l-92.718 92.718a34.816 34.816 0 0 1-49.338 0 34.91 34.91 0 0 1 0-49.384l68.049-68.05-68.05-68.05A34.91 34.91 0 1 1 735 426.59l92.672 92.765z"/></svg>