<svg class="icon" viewBox="0 0 1185 1024" xmlns="http://www.w3.org/2000/svg" width="231.445" height="200"><defs><style/></defs><path d="M663.336 29.534h-150.85a113.071 113.071 0 0 0-111.024 115.173c1.132 60.901 50.122 111.024 111.023 111.024h150.96c62.517 0 112.316-52.817 111.022-115.174a113.179 113.179 0 0 0-111.13-111.023zm0 377.91h-150.85a113.071 113.071 0 0 0-110.97 115.335c1.132 60.901 50.122 108.76 111.023 111.023h150.96c62.517-2.263 112.316-52.817 111.022-115.173a113.233 113.233 0 0 0-111.13-111.185zm0 376.832h-150.85c-62.519 2.264-112.264 52.817-111.024 115.173a113.179 113.179 0 0 0 111.023 111.023h150.96a113.179 113.179 0 0 0 111.022-115.334 112.856 112.856 0 0 0-111.13-110.754v-.108zm-415.312 75.237a150.366 150.366 0 0 1-150.69-150.797 149.612 149.612 0 0 1 44.194-106.604A150.366 150.366 0 0 1 248.4 558.026h75.237V482.25h-75.183A226.627 226.627 0 0 0 21.827 708.608c0 124.928 101.538 226.358 226.089 226.358v75.399l113.179-113.18-113.287-113.178v75.452h.27v.054zM927.528 105.31h-75.29v75.776h75.29c40.044 0 78.417 15.522 106.712 43.817a150.366 150.366 0 0 1-.27 213.207 151.875 151.875 0 0 1-107.088 44.14v-75.453l-113.18 113.18 113.18 113.178v-75.344c124.55 0 226.627-101.323 226.627-226.197a225.873 225.873 0 0 0-225.98-226.25z"/></svg>