<svg class="icon" viewBox="0 0 1024 1024" xmlns="http://www.w3.org/2000/svg" width="200" height="200"><defs><style/></defs><path d="M349.9 277.9c-23.8 33.5-36.4 73-36.4 114.2 0 12.1 1.1 24.1 3.3 35.9-18.9 13.8-31.3 36.2-31.3 61.4 0 41.9 34.1 75.9 75.9 75.9 13.9 0 26.9-3.8 38.1-10.3 32.8 22.4 71 34.3 111.1 34.3 39.6 0 78.5-12.1 111.1-34.3 11.2 6.5 24.2 10.3 38.1 10.3 41.9 0 75.9-34.1 75.9-75.9 0-25.2-12.3-47.5-31.3-61.4 2.2-11.8 3.3-23.8 3.3-35.9 0-41.1-12.5-80.4-36.1-113.8-21.7-30.6-51.1-54.1-85.5-68.4-3.9-38.3-36.3-68.3-75.6-68.3s-71.7 30-75.6 68.3c-34 14.2-63.4 37.6-85 68zm-24.4 211.4c0-19.8 16.1-35.9 35.9-35.9 19.8 0 35.9 16.1 35.9 35.9 0 19.8-16.1 35.9-35.9 35.9-19.8.1-35.9-16-35.9-35.9zm334.4 36c-8.3 0-16-2.8-22.1-7.6-.1-.1-.2-.2-.2-.3-1.3-1.6-2.8-3-4.5-4.1-5.7-6.4-9.2-14.7-9.2-23.9 0-19.8 16.1-35.9 36-35.9 19.8 0 35.9 16.1 35.9 35.9 0 19.8-16.1 35.9-35.9 35.9zM510.7 181.6c19.8 0 36 16.1 36 35.9s-16.1 35.9-36 35.9c-19.8 0-35.9-16.1-35.9-35.9s16-35.9 35.9-35.9zm-68.4 69c12.3 25.4 38.3 43 68.4 43 30.1 0 56.1-17.6 68.4-43 53.6 26 88.8 81.1 88.8 141.5 0 7.2-.5 14.5-1.5 21.6-2.1-.2-4.3-.3-6.5-.3-41.9 0-76 34.1-76 75.9 0 13.2 3.4 25.7 9.4 36.5-24.7 15.4-52.9 23.4-82.6 23.4-29.6 0-57.9-8.1-82.6-23.4 6-10.8 9.4-23.3 9.4-36.5 0-41.9-34.1-75.9-75.9-75.9-2.2 0-4.3.1-6.5.3-1-7.1-1.5-14.3-1.5-21.6-.1-60.5 35-115.5 88.7-141.5z"/><path d="M834.5 202.4H696.7c-11 0-20 9-20 20s9 20 20 20h137.7c23.4 0 42.5 19.1 42.5 42.5V602h-732V284.9c0-23.4 19.1-42.5 42.5-42.5h152.1c11 0 20-9 20-20s-9-20-20-20H187.3c-45.5 0-82.5 37-82.5 82.5v384.8c0 45.5 37 82.5 82.5 82.5H491V842H332c-11 0-20 9-20 20s9 20 20 20h345c11 0 20-9 20-20s-9-20-20-20H531v-89.9h303.5c45.5 0 82.5-37 82.5-82.5V284.9c0-45.5-37-82.5-82.5-82.5zm0 509.7H187.3c-23.4 0-42.5-19.1-42.5-42.5V642H877v27.7c0 23.4-19.1 42.4-42.5 42.4z"/></svg>